GyrOrbital-Regular.ufo
<glyph name="exclam" format="1">
  <advance width="350"/>
  <unicode hex="0021"/>
  <outline>
    <contour>
      <point x="60" y="0" type="line" smooth="yes"/>
      <point x="290" y="0" type="line" smooth="yes"/>
      <point x="293" y="1" type="line"/>
      <point x="294" y="1" type="line" smooth="yes"/>
      <point x="294" y="1" type="line"/>
      <point x="292" y="0"/>
      <point x="293" y="1"/>
      <point x="295" y="2" type="curve"/>
      <point x="296" y="2"/>
      <point x="297" y="3"/>
      <point x="298" y="5" type="curve"/>
      <point x="300" y="9"/>
      <point x="300" y="7"/>
      <point x="299" y="7" type="curve"/>
      <point x="300" y="12"/>
      <point x="300" y="10"/>
      <point x="300" y="9" type="curve"/>
      <point x="300" y="10" type="line" smooth="yes"/>
      <point x="299" y="13" type="line"/>
      <point x="299" y="14" type="line" smooth="yes"/>
      <point x="185" y="252" type="line"/>
      <point x="185" y="490" type="line" smooth="yes"/>
      <point x="185" y="495"/>
      <point x="180" y="500"/>
      <point x="175" y="500" type="curve" smooth="yes"/>
      <point x="170" y="500"/>
      <point x="165" y="495"/>
      <point x="165" y="490" type="curve" smooth="yes"/>
      <point x="165" y="252" type="line"/>
      <point x="51" y="14" type="line" smooth="yes"/>
      <point x="51" y="12" type="line"/>
      <point x="50" y="10" type="line" smooth="yes"/>
      <point x="50" y="8"/>
      <point x="51" y="7"/>
      <point x="52" y="5" type="curve"/>
      <point x="55" y="1"/>
      <point x="55" y="2"/>
      <point x="54" y="3" type="curve"/>
      <point x="58" y="0"/>
      <point x="57" y="0"/>
      <point x="55" y="1" type="curve"/>
      <point x="56" y="1" type="line" smooth="yes"/>
      <point x="58" y="1" type="line"/>
    </contour>
    <contour>
      <point x="274" y="20" type="line"/>
      <point x="76" y="20" type="line"/>
      <point x="175" y="227" type="line"/>
    </contour>
  </outline>
</glyph>
<glyph name="quotedbl" format="1">
  <advance width="350"/>
  <unicode hex="0022"/>
  <outline>
    <contour>
      <point x="175" y="240" type="curve" smooth="yes"/>
      <point x="180" y="240"/>
      <point x="185" y="245"/>
      <point x="185" y="250" type="curve" smooth="yes"/>
      <point x="185" y="490" type="line" smooth="yes"/>
      <point x="185" y="492"/>
      <point x="184" y="493"/>
      <point x="183" y="495" type="curve"/>
      <point x="180" y="499"/>
      <point x="180" y="498"/>
      <point x="181" y="497" type="curve"/>
      <point x="177" y="500"/>
      <point x="178" y="500"/>
      <point x="180" y="499" type="curve"/>
      <point x="179" y="499" type="line" smooth="yes"/>
      <point x="177" y="499" type="line"/>
      <point x="175" y="500" type="line" smooth="yes"/>
      <point x="173" y="500"/>
      <point x="172" y="499"/>
      <point x="170" y="498" type="curve"/>
      <point x="166" y="495"/>
      <point x="167" y="496"/>
      <point x="168" y="496" type="curve"/>
      <point x="165" y="492"/>
      <point x="166" y="493"/>
      <point x="166" y="495" type="curve"/>
      <point x="166" y="494" type="line" smooth="yes"/>
      <point x="70" y="294" type="line"/>
      <point x="70" y="490" type="line" smooth="yes"/>
      <point x="70" y="495"/>
      <point x="65" y="500"/>
      <point x="60" y="500" type="curve" smooth="yes"/>
      <point x="55" y="500"/>
      <point x="50" y="495"/>
      <point x="50" y="490" type="curve" smooth="yes"/>
      <point x="50" y="250" type="line" smooth="yes"/>
      <point x="50" y="248"/>
      <point x="51" y="247"/>
      <point x="52" y="245" type="curve"/>
      <point x="55" y="241"/>
      <point x="55" y="242"/>
      <point x="54" y="243" type="curve"/>
      <point x="58" y="240"/>
      <point x="57" y="240"/>
      <point x="55" y="241" type="curve"/>
      <point x="56" y="241" type="line" smooth="yes"/>
      <point x="58" y="241" type="line"/>
      <point x="60" y="240" type="line" smooth="yes"/>
      <point x="62" y="240"/>
      <point x="63" y="241"/>
      <point x="65" y="242" type="curve"/>
      <point x="69" y="245"/>
      <point x="68" y="244"/>
      <point x="67" y="244" type="curve"/>
      <point x="70" y="248"/>
      <point x="69" y="247"/>
      <point x="69" y="245" type="curve"/>
      <point x="69" y="246" type="line" smooth="yes"/>
      <point x="165" y="446" type="line"/>
      <point x="165" y="250" type="line" smooth="yes"/>
      <point x="165" y="245"/>
      <point x="170" y="240"/>
    </contour>
  </outline>
</glyph>
<glyph name="numbersign" format="1">
  <advance width="350"/>
  <unicode hex="0023"/>
  <outline>
    <contour>
      <point x="60" y="0" type="line" smooth="yes"/>
      <point x="290" y="0" type="line" smooth="yes"/>
      <point x="295" y="0"/>
      <point x="300" y="5"/>
      <point x="300" y="10" type="curve" smooth="yes"/>
      <point x="300" y="15"/>
      <point x="295" y="20"/>
      <point x="290" y="20" type="curve" smooth="yes"/>
      <point x="188" y="20" type="line"/>
      <point x="300" y="488" type="line" smooth="yes"/>
      <point x="300" y="490" type="line"/>
      <point x="300" y="490" type="line" smooth="yes"/>
      <point x="300" y="490" type="line"/>
      <point x="300" y="490"/>
      <point x="300" y="493"/>
      <point x="299" y="494" type="curve"/>
      <point x="300" y="492"/>
      <point x="299" y="493"/>
      <point x="299" y="495" type="curve"/>
      <point x="293" y="500"/>
      <point x="294" y="499"/>
      <point x="295" y="498" type="curve"/>
      <point x="292" y="500"/>
      <point x="293" y="500"/>
      <point x="294" y="499" type="curve"/>
      <point x="292" y="500" type="line" smooth="yes"/>
      <point x="290" y="500" type="line"/>
      <point x="290" y="500" type="line" smooth="yes"/>
      <point x="60" y="500" type="line" smooth="yes"/>
      <point x="55" y="500"/>
      <point x="50" y="495"/>
      <point x="50" y="490" type="curve" smooth="yes"/>
      <point x="50" y="485"/>
      <point x="55" y="480"/>
      <point x="60" y="480" type="curve" smooth="yes"/>
      <point x="162" y="480" type="line"/>
      <point x="50" y="12" type="line" smooth="yes"/>
      <point x="50" y="10" type="line"/>
      <point x="50" y="10" type="line" smooth="yes"/>
      <point x="50" y="10" type="line"/>
      <point x="50" y="10"/>
      <point x="50" y="7"/>
      <point x="51" y="6" type="curve"/>
      <point x="50" y="8"/>
      <point x="51" y="7"/>
      <point x="51" y="5" type="curve"/>
      <point x="57" y="0"/>
      <point x="56" y="1"/>
      <point x="55" y="2" type="curve"/>
      <point x="58" y="0"/>
      <point x="57" y="0"/>
      <point x="56" y="1" type="curve"/>
      <point x="58" y="0" type="line" smooth="yes"/>
      <point x="60" y="0" type="line"/>
    </contour>
    <contour>
      <point x="277" y="480" type="line"/>
      <point x="167" y="20" type="line"/>
      <point x="73" y="20" type="line"/>
      <point x="183" y="480" type="line"/>
    </contour>
  </outline>
</glyph>
<glyph name="ampersand" format="1">
  <advance width="350"/>
  <unicode hex="0026"/>
  <outline>
    <contour>
      <point x="267" y="480" type="line"/>
      <point x="139" y="347" type="line"/>
      <point x="76" y="480" type="line"/>
    </contour>
    <contour>
      <point x="169" y="20" type="line"/>
      <point x="70" y="20" type="line"/>
      <point x="70" y="246" type="line"/>
      <point x="134" y="313" type="line"/>
      <point x="222" y="130" type="line"/>
    </contour>
    <contour>
      <point x="175" y="0" type="line" smooth="yes"/>
      <point x="177" y="0"/>
      <point x="178" y="1"/>
      <point x="180" y="2" type="curve"/>
      <point x="184" y="5"/>
      <point x="183" y="4"/>
      <point x="182" y="4" type="curve"/>
      <point x="185" y="8"/>
      <point x="184" y="7"/>
      <point x="184" y="5" type="curve"/>
      <point x="184" y="6" type="line" smooth="yes"/>
      <point x="233" y="107" type="line"/>
      <point x="281" y="6" type="line" smooth="yes"/>
      <point x="283" y="1"/>
      <point x="289" y="-1"/>
      <point x="294" y="1" type="curve" smooth="yes"/>
      <point x="299" y="3"/>
      <point x="301" y="9"/>
      <point x="299" y="14" type="curve" smooth="yes"/>
      <point x="243" y="130" type="line"/>
      <point x="299" y="246" type="line" smooth="yes"/>
      <point x="301" y="251"/>
      <point x="299" y="257"/>
      <point x="294" y="259" type="curve" smooth="yes"/>
      <point x="289" y="261"/>
      <point x="283" y="259"/>
      <point x="281" y="254" type="curve" smooth="yes"/>
      <point x="233" y="153" type="line"/>
      <point x="149" y="328" type="line"/>
      <point x="297" y="483" type="line" smooth="yes"/>
      <point x="298" y="485" type="line"/>
      <point x="300" y="488"/>
      <point x="299" y="487"/>
      <point x="299" y="486" type="curve"/>
      <point x="298" y="484"/>
      <point x="299" y="486"/>
      <point x="300" y="489" type="curve"/>
      <point x="300" y="490" type="line" smooth="yes"/>
      <point x="300" y="491" type="line"/>
      <point x="298" y="496"/>
      <point x="299" y="495"/>
      <point x="299" y="494" type="curve"/>
      <point x="300" y="492"/>
      <point x="299" y="494"/>
      <point x="298" y="495" type="curve"/>
      <point x="297" y="497" type="line" smooth="yes"/>
      <point x="295" y="498" type="line"/>
      <point x="292" y="500"/>
      <point x="293" y="500"/>
      <point x="294" y="499" type="curve"/>
      <point x="295" y="499"/>
      <point x="293" y="500"/>
      <point x="291" y="500" type="curve"/>
      <point x="290" y="500" type="line" smooth="yes"/>
      <point x="60" y="500" type="line" smooth="yes"/>
      <point x="57" y="499" type="line"/>
      <point x="56" y="499" type="line" smooth="yes"/>
      <point x="56" y="499" type="line"/>
      <point x="58" y="500"/>
      <point x="57" y="499"/>
      <point x="55" y="498" type="curve"/>
      <point x="54" y="498"/>
      <point x="53" y="497"/>
      <point x="52" y="495" type="curve"/>
      <point x="50" y="491"/>
      <point x="50" y="493"/>
      <point x="51" y="493" type="curve"/>
      <point x="50" y="488"/>
      <point x="50" y="490"/>
      <point x="50" y="491" type="curve"/>
      <point x="50" y="490" type="line" smooth="yes"/>
      <point x="51" y="487" type="line"/>
      <point x="51" y="486" type="line" smooth="yes"/>
      <point x="125" y="332" type="line"/>
      <point x="53" y="257" type="line" smooth="yes"/>
      <point x="52" y="255" type="line"/>
      <point x="50" y="252"/>
      <point x="51" y="253"/>
      <point x="51" y="254" type="curve"/>
      <point x="52" y="256"/>
      <point x="51" y="254"/>
      <point x="50" y="251" type="curve"/>
      <point x="50" y="250" type="line" smooth="yes"/>
      <point x="50" y="10" type="line" smooth="yes"/>
      <point x="50" y="5"/>
      <point x="55" y="0"/>
      <point x="60" y="0" type="curve" smooth="yes"/>
    </contour>
  </outline>
</glyph>
<glyph name="quotesingle" format="1">
  <advance width="350"/>
  <unicode hex="0027"/>
  <outline>
    <contour>
      <point x="60" y="500" type="curve" smooth="yes"/>
      <point x="55" y="500"/>
      <point x="50" y="495"/>
      <point x="50" y="490" type="curve" smooth="yes"/>
      <point x="50" y="250" type="line" smooth="yes"/>
      <point x="50" y="245"/>
      <point x="55" y="240"/>
      <point x="60" y="240" type="curve" smooth="yes"/>
      <point x="65" y="240"/>
      <point x="70" y="245"/>
      <point x="70" y="250" type="curve" smooth="yes"/>
      <point x="70" y="490" type="line" smooth="yes"/>
      <point x="70" y="495"/>
      <point x="65" y="500"/>
    </contour>
  </outline>
</glyph>
<glyph name="parenleft" format="1">
  <advance width="349.76640683"/>
  <unicode hex="0028"/>
  <outline>
    <contour>
      <point x="183.76640683" y="6" type="curve" smooth="yes"/>
      <point x="298.76640683" y="246" type="line" smooth="yes"/>
      <point x="298.76640683" y="248" type="line"/>
      <point x="299.76640683" y="252"/>
      <point x="299.76640683" y="250"/>
      <point x="299.76640683" y="249" type="curve"/>
      <point x="299.76640683" y="248"/>
      <point x="299.76640683" y="251"/>
      <point x="298.76640683" y="252" type="curve"/>
      <point x="298.76640683" y="254" type="line" smooth="yes"/>
      <point x="183.76640683" y="494" type="line" smooth="yes"/>
      <point x="181.76640683" y="499"/>
      <point x="175.76640683" y="501"/>
      <point x="170.76640683" y="499" type="curve" smooth="yes"/>
      <point x="165.76640683" y="497"/>
      <point x="163.76640683" y="491"/>
      <point x="165.76640683" y="486" type="curve" smooth="yes"/>
      <point x="278.76640683" y="250" type="line"/>
      <point x="165.76640683" y="14" type="line" smooth="yes"/>
      <point x="163.76640683" y="9"/>
      <point x="165.76640683" y="3"/>
      <point x="170.76640683" y="1" type="curve" smooth="yes"/>
      <point x="175.76640683" y="-1"/>
      <point x="181.76640683" y="1"/>
    </contour>
  </outline>
</glyph>
<glyph name="plus" format="1">
  <advance width="350"/>
  <unicode hex="002B"/>
  <outline>
    <contour>
      <point x="175" y="0" type="curve" smooth="yes"/>
      <point x="180" y="0"/>
      <point x="185" y="5"/>
      <point x="185" y="10" type="curve" smooth="yes"/>
      <point x="185" y="240" type="line"/>
      <point x="290" y="240" type="line" smooth="yes"/>
      <point x="295" y="240"/>
      <point x="300" y="245"/>
      <point x="300" y="250" type="curve" smooth="yes"/>
      <point x="300" y="255"/>
      <point x="295" y="260"/>
      <point x="290" y="260" type="curve" smooth="yes"/>
      <point x="185" y="260" type="line"/>
      <point x="185" y="490" type="line" smooth="yes"/>
      <point x="185" y="495"/>
      <point x="180" y="500"/>
      <point x="175" y="500" type="curve" smooth="yes"/>
      <point x="170" y="500"/>
      <point x="165" y="495"/>
      <point x="165" y="490" type="curve" smooth="yes"/>
      <point x="165" y="260" type="line"/>
      <point x="60" y="260" type="line" smooth="yes"/>
      <point x="55" y="260"/>
      <point x="50" y="255"/>
      <point x="50" y="250" type="curve" smooth="yes"/>
      <point x="50" y="245"/>
      <point x="55" y="240"/>
      <point x="60" y="240" type="curve" smooth="yes"/>
      <point x="165" y="240" type="line"/>
      <point x="165" y="10" type="line" smooth="yes"/>
      <point x="165" y="5"/>
      <point x="170" y="0"/>
    </contour>
  </outline>
</glyph>
<glyph name="comma" format="1">
  <advance width="349.532813659"/>
  <unicode hex="002C"/>
  <outline>
    <contour>
      <point x="293.76640683" y="259" type="curve" smooth="yes"/>
      <point x="288.76640683" y="261"/>
      <point x="282.76640683" y="259"/>
      <point x="280.76640683" y="254" type="curve" smooth="yes"/>
      <point x="165.76640683" y="14" type="line" smooth="yes"/>
      <point x="163.76640683" y="9"/>
      <point x="165.76640683" y="3"/>
      <point x="170.76640683" y="1" type="curve" smooth="yes"/>
      <point x="175.76640683" y="-1"/>
      <point x="181.76640683" y="1"/>
      <point x="183.76640683" y="6" type="curve" smooth="yes"/>
      <point x="298.76640683" y="246" type="line" smooth="yes"/>
      <point x="300.76640683" y="251"/>
      <point x="298.76640683" y="257"/>
    </contour>
  </outline>
</glyph>
<glyph name="hyphen" format="1">
  <advance width="350"/>
  <unicode hex="002D"/>
  <outline>
    <contour>
      <point x="50" y="250" type="curve" smooth="yes"/>
      <point x="50" y="245"/>
      <point x="55" y="240"/>
      <point x="60" y="240" type="curve" smooth="yes"/>
      <point x="290" y="240" type="line" smooth="yes"/>
      <point x="295" y="240"/>
      <point x="300" y="245"/>
      <point x="300" y="250" type="curve" smooth="yes"/>
      <point x="300" y="255"/>
      <point x="295" y="260"/>
      <point x="290" y="260" type="curve" smooth="yes"/>
      <point x="60" y="260" type="line" smooth="yes"/>
      <point x="55" y="260"/>
      <point x="50" y="255"/>
    </contour>
  </outline>
</glyph>
<glyph name="period" format="1">
  <advance width="350"/>
  <unicode hex="002E"/>
  <outline>
    <contour>
      <point x="165" y="10" type="curve" smooth="yes"/>
      <point x="165" y="5"/>
      <point x="170" y="0"/>
      <point x="175" y="0" type="curve" smooth="yes"/>
      <point x="290" y="0" type="line" smooth="yes"/>
      <point x="295" y="0"/>
      <point x="300" y="5"/>
      <point x="300" y="10" type="curve" smooth="yes"/>
      <point x="300" y="15"/>
      <point x="295" y="20"/>
      <point x="290" y="20" type="curve" smooth="yes"/>
      <point x="175" y="20" type="line" smooth="yes"/>
      <point x="170" y="20"/>
      <point x="165" y="15"/>
    </contour>
  </outline>
</glyph>
<glyph name="slash" format="1">
  <advance width="349.532813659"/>
  <unicode hex="002F"/>
  <outline>
    <contour>
      <point x="293.76640683" y="499" type="curve" smooth="yes"/>
      <point x="288.76640683" y="501"/>
      <point x="282.76640683" y="499"/>
      <point x="280.76640683" y="494" type="curve" smooth="yes"/>
      <point x="50.7664068297" y="14" type="line" smooth="yes"/>
      <point x="48.7664068297" y="9"/>
      <point x="50.7664068297" y="3"/>
      <point x="55.7664068297" y="1" type="curve" smooth="yes"/>
      <point x="60.7664068297" y="-1"/>
      <point x="66.7664068297" y="1"/>
      <point x="68.7664068297" y="6" type="curve" smooth="yes"/>
      <point x="298.76640683" y="486" type="line" smooth="yes"/>
      <point x="300.76640683" y="491"/>
      <point x="298.76640683" y="497"/>
    </contour>
  </outline>
</glyph>
<glyph name="zero" format="1">
  <advance width="350"/>
  <unicode hex="0030"/>
  <outline>
    <contour>
      <point x="280" y="480" type="line"/>
      <point x="280" y="54" type="line"/>
      <point x="76" y="480" type="line"/>
    </contour>
    <contour>
      <point x="274" y="20" type="line"/>
      <point x="70" y="20" type="line"/>
      <point x="70" y="446" type="line"/>
    </contour>
    <contour>
      <point x="290" y="0" type="line" smooth="yes"/>
      <point x="293" y="1" type="line"/>
      <point x="294" y="1" type="line" smooth="yes"/>
      <point x="294" y="1" type="line"/>
      <point x="292" y="0"/>
      <point x="293" y="1"/>
      <point x="295" y="2" type="curve"/>
      <point x="296" y="2"/>
      <point x="297" y="3"/>
      <point x="298" y="5" type="curve"/>
      <point x="300" y="9"/>
      <point x="300" y="7"/>
      <point x="299" y="7" type="curve"/>
      <point x="300" y="12"/>
      <point x="300" y="10"/>
      <point x="300" y="9" type="curve"/>
      <point x="300" y="10" type="line" smooth="yes"/>
      <point x="300" y="490" type="line" smooth="yes"/>
      <point x="300" y="495"/>
      <point x="295" y="500"/>
      <point x="290" y="500" type="curve" smooth="yes"/>
      <point x="60" y="500" type="line" smooth="yes"/>
      <point x="57" y="499" type="line"/>
      <point x="56" y="499" type="line" smooth="yes"/>
      <point x="56" y="499" type="line"/>
      <point x="58" y="500"/>
      <point x="57" y="499"/>
      <point x="55" y="498" type="curve"/>
      <point x="54" y="498"/>
      <point x="53" y="497"/>
      <point x="52" y="495" type="curve"/>
      <point x="50" y="491"/>
      <point x="50" y="493"/>
      <point x="51" y="493" type="curve"/>
      <point x="50" y="488"/>
      <point x="50" y="490"/>
      <point x="50" y="491" type="curve"/>
      <point x="50" y="490" type="line" smooth="yes"/>
      <point x="50" y="10" type="line" smooth="yes"/>
      <point x="50" y="5"/>
      <point x="55" y="0"/>
      <point x="60" y="0" type="curve" smooth="yes"/>
    </contour>
  </outline>
</glyph>
<glyph name="less" format="1">
  <advance width="350.0"/>
  <unicode hex="003C"/>
  <outline>
    <contour>
      <point x="297.0" y="3" type="curve" smooth="yes"/>
      <point x="301.0" y="7"/>
      <point x="301.0" y="13"/>
      <point x="297.0" y="17" type="curve" smooth="yes"/>
      <point x="74.0" y="250" type="line"/>
      <point x="297.0" y="483" type="line" smooth="yes"/>
      <point x="301.0" y="487"/>
      <point x="301.0" y="493"/>
      <point x="297.0" y="497" type="curve" smooth="yes"/>
      <point x="293.0" y="501"/>
      <point x="287.0" y="501"/>
      <point x="283.0" y="497" type="curve" smooth="yes"/>
      <point x="53.0" y="257" type="line" smooth="yes"/>
      <point x="49.0" y="253"/>
      <point x="49.0" y="247"/>
      <point x="53.0" y="243" type="curve" smooth="yes"/>
      <point x="283.0" y="3" type="line" smooth="yes"/>
      <point x="287.0" y="-1"/>
      <point x="293.0" y="-1"/>
    </contour>
  </outline>
</glyph>
<glyph name="equal" format="1">
  <advance width="350"/>
  <unicode hex="003D"/>
  <outline>
    <contour>
      <point x="290" y="0" type="line" smooth="yes"/>
      <point x="291" y="0" type="line"/>
      <point x="296" y="2"/>
      <point x="295" y="1"/>
      <point x="294" y="1" type="curve"/>
      <point x="292" y="0"/>
      <point x="294" y="1"/>
      <point x="295" y="2" type="curve"/>
      <point x="297" y="3" type="line" smooth="yes"/>
      <point x="298" y="5" type="line"/>
      <point x="300" y="8"/>
      <point x="299" y="7"/>
      <point x="299" y="6" type="curve"/>
      <point x="298" y="4"/>
      <point x="299" y="6"/>
      <point x="300" y="9" type="curve"/>
      <point x="300" y="10" type="line" smooth="yes"/>
      <point x="300" y="11" type="line"/>
      <point x="298" y="16"/>
      <point x="299" y="15"/>
      <point x="299" y="14" type="curve"/>
      <point x="300" y="12"/>
      <point x="299" y="14"/>
      <point x="298" y="15" type="curve"/>
      <point x="297" y="17" type="line" smooth="yes"/>
      <point x="83" y="240" type="line"/>
      <point x="290" y="240" type="line" smooth="yes"/>
      <point x="295" y="240"/>
      <point x="300" y="245"/>
      <point x="300" y="250" type="curve" smooth="yes"/>
      <point x="300" y="255"/>
      <point x="295" y="260"/>
      <point x="290" y="260" type="curve" smooth="yes"/>
      <point x="60" y="260" type="line" smooth="yes"/>
      <point x="59" y="260" type="line"/>
      <point x="54" y="258"/>
      <point x="55" y="259"/>
      <point x="56" y="259" type="curve"/>
      <point x="58" y="260"/>
      <point x="56" y="259"/>
      <point x="55" y="258" type="curve"/>
      <point x="53" y="257" type="line" smooth="yes"/>
      <point x="52" y="255" type="line"/>
      <point x="50" y="252"/>
      <point x="51" y="253"/>
      <point x="51" y="254" type="curve"/>
      <point x="52" y="256"/>
      <point x="51" y="254"/>
      <point x="50" y="251" type="curve"/>
      <point x="50" y="250" type="line" smooth="yes"/>
      <point x="50" y="249" type="line"/>
      <point x="52" y="244"/>
      <point x="51" y="245"/>
      <point x="51" y="246" type="curve"/>
      <point x="50" y="248"/>
      <point x="51" y="246"/>
      <point x="52" y="245" type="curve"/>
      <point x="53" y="243" type="line" smooth="yes"/>
      <point x="267" y="20" type="line"/>
      <point x="60" y="20" type="line" smooth="yes"/>
      <point x="55" y="20"/>
      <point x="50" y="15"/>
      <point x="50" y="10" type="curve" smooth="yes"/>
      <point x="50" y="5"/>
      <point x="55" y="0"/>
      <point x="60" y="0" type="curve" smooth="yes"/>
    </contour>
  </outline>
</glyph>
<glyph name="greater" format="1">
  <advance width="350.0"/>
  <unicode hex="003E"/>
  <outline>
    <contour>
      <point x="67.0" y="3" type="curve" smooth="yes"/>
      <point x="297.0" y="243" type="line" smooth="yes"/>
      <point x="301.0" y="247"/>
      <point x="301.0" y="253"/>
      <point x="297.0" y="257" type="curve" smooth="yes"/>
      <point x="67.0" y="497" type="line" smooth="yes"/>
      <point x="63.0" y="501"/>
      <point x="57.0" y="501"/>
      <point x="53.0" y="497" type="curve" smooth="yes"/>
      <point x="49.0" y="493"/>
      <point x="49.0" y="487"/>
      <point x="53.0" y="483" type="curve" smooth="yes"/>
      <point x="276.0" y="250" type="line"/>
      <point x="53.0" y="17" type="line" smooth="yes"/>
      <point x="49.0" y="13"/>
      <point x="49.0" y="7"/>
      <point x="53.0" y="3" type="curve" smooth="yes"/>
      <point x="57.0" y="-1"/>
      <point x="63.0" y="-1"/>
    </contour>
  </outline>
</glyph>
<glyph name="C" format="1">
  <advance width="350"/>
  <unicode hex="0043"/>
  <outline>
    <contour>
      <point x="60" y="0" type="curve" smooth="yes"/>
      <point x="290" y="0" type="line" smooth="yes"/>
      <point x="295" y="0"/>
      <point x="300" y="5"/>
      <point x="300" y="10" type="curve" smooth="yes"/>
      <point x="300" y="15"/>
      <point x="295" y="20"/>
      <point x="290" y="20" type="curve" smooth="yes"/>
      <point x="70" y="20" type="line"/>
      <point x="70" y="480" type="line"/>
      <point x="290" y="480" type="line" smooth="yes"/>
      <point x="295" y="480"/>
      <point x="300" y="485"/>
      <point x="300" y="490" type="curve" smooth="yes"/>
      <point x="300" y="495"/>
      <point x="295" y="500"/>
      <point x="290" y="500" type="curve" smooth="yes"/>
      <point x="60" y="500" type="line" smooth="yes"/>
      <point x="55" y="500"/>
      <point x="50" y="495"/>
      <point x="50" y="490" type="curve" smooth="yes"/>
      <point x="50" y="10" type="line" smooth="yes"/>
      <point x="50" y="5"/>
      <point x="55" y="0"/>
    </contour>
  </outline>
</glyph>
<glyph name="D" format="1">
  <advance width="350"/>
  <unicode hex="0044"/>
  <outline>
    <contour>
      <point x="60" y="0" type="curve" smooth="yes"/>
      <point x="175" y="0" type="line" smooth="yes"/>
      <point x="177" y="0"/>
      <point x="178" y="1"/>
      <point x="180" y="2" type="curve"/>
      <point x="184" y="5"/>
      <point x="183" y="4"/>
      <point x="182" y="4" type="curve"/>
      <point x="185" y="8"/>
      <point x="184" y="7"/>
      <point x="184" y="5" type="curve"/>
      <point x="184" y="6" type="line" smooth="yes"/>
      <point x="299" y="246" type="line" smooth="yes"/>
      <point x="299" y="248" type="line"/>
      <point x="300" y="252"/>
      <point x="300" y="250"/>
      <point x="300" y="249" type="curve"/>
      <point x="300" y="248"/>
      <point x="300" y="251"/>
      <point x="299" y="252" type="curve"/>
      <point x="299" y="254" type="line" smooth="yes"/>
      <point x="184" y="494" type="line" smooth="yes"/>
      <point x="184" y="494" type="line"/>
      <point x="185" y="492"/>
      <point x="184" y="493"/>
      <point x="183" y="495" type="curve"/>
      <point x="183" y="496"/>
      <point x="182" y="497"/>
      <point x="180" y="498" type="curve"/>
      <point x="176" y="500"/>
      <point x="177" y="500"/>
      <point x="178" y="499" type="curve"/>
      <point x="173" y="500"/>
      <point x="174" y="500"/>
      <point x="176" y="500" type="curve"/>
      <point x="175" y="500" type="line" smooth="yes"/>
      <point x="60" y="500" type="line" smooth="yes"/>
      <point x="55" y="500"/>
      <point x="50" y="495"/>
      <point x="50" y="490" type="curve" smooth="yes"/>
      <point x="50" y="10" type="line" smooth="yes"/>
      <point x="50" y="5"/>
      <point x="55" y="0"/>
    </contour>
    <contour>
      <point x="279" y="250" type="line"/>
      <point x="169" y="20" type="line"/>
      <point x="70" y="20" type="line"/>
      <point x="70" y="480" type="line"/>
      <point x="169" y="480" type="line"/>
    </contour>
  </outline>
</glyph>
<glyph name="L" format="1">
  <advance width="350"/>
  <unicode hex="004C"/>
  <outline>
    <contour>
      <point x="60" y="0" type="curve" smooth="yes"/>
      <point x="290" y="0" type="line" smooth="yes"/>
      <point x="295" y="0"/>
      <point x="300" y="5"/>
      <point x="300" y="10" type="curve" smooth="yes"/>
      <point x="300" y="15"/>
      <point x="295" y="20"/>
      <point x="290" y="20" type="curve" smooth="yes"/>
      <point x="70" y="20" type="line"/>
      <point x="70" y="490" type="line" smooth="yes"/>
      <point x="70" y="495"/>
      <point x="65" y="500"/>
      <point x="60" y="500" type="curve" smooth="yes"/>
      <point x="55" y="500"/>
      <point x="50" y="495"/>
      <point x="50" y="490" type="curve" smooth="yes"/>
      <point x="50" y="10" type="line" smooth="yes"/>
      <point x="50" y="5"/>
      <point x="55" y="0"/>
    </contour>
  </outline>
</glyph>
<glyph name="M" format="1">
  <advance width="350"/>
  <unicode hex="004D"/>
  <outline>
    <contour>
      <point x="290" y="0" type="curve" smooth="yes"/>
      <point x="295" y="0"/>
      <point x="300" y="5"/>
      <point x="300" y="10" type="curve" smooth="yes"/>
      <point x="300" y="490" type="line" smooth="yes"/>
      <point x="300" y="492"/>
      <point x="299" y="493"/>
      <point x="298" y="495" type="curve"/>
      <point x="295" y="499"/>
      <point x="295" y="498"/>
      <point x="296" y="497" type="curve"/>
      <point x="292" y="500"/>
      <point x="293" y="500"/>
      <point x="295" y="499" type="curve"/>
      <point x="294" y="499" type="line" smooth="yes"/>
      <point x="292" y="499" type="line"/>
      <point x="290" y="500" type="line" smooth="yes"/>
      <point x="288" y="500"/>
      <point x="287" y="499"/>
      <point x="285" y="498" type="curve"/>
      <point x="281" y="495"/>
      <point x="282" y="496"/>
      <point x="283" y="496" type="curve"/>
      <point x="280" y="492"/>
      <point x="281" y="493"/>
      <point x="281" y="495" type="curve"/>
      <point x="281" y="494" type="line" smooth="yes"/>
      <point x="175" y="273" type="line"/>
      <point x="69" y="494" type="line" smooth="yes"/>
      <point x="69" y="494" type="line"/>
      <point x="70" y="492"/>
      <point x="69" y="493"/>
      <point x="68" y="495" type="curve"/>
      <point x="68" y="496"/>
      <point x="67" y="497"/>
      <point x="65" y="498" type="curve"/>
      <point x="61" y="500"/>
      <point x="62" y="500"/>
      <point x="63" y="499" type="curve"/>
      <point x="58" y="500"/>
      <point x="59" y="500"/>
      <point x="61" y="500" type="curve"/>
      <point x="60" y="500" type="line" smooth="yes"/>
      <point x="57" y="499" type="line"/>
      <point x="56" y="499" type="line" smooth="yes"/>
      <point x="56" y="499" type="line"/>
      <point x="58" y="500"/>
      <point x="57" y="499"/>
      <point x="55" y="498" type="curve"/>
      <point x="54" y="498"/>
      <point x="53" y="497"/>
      <point x="52" y="495" type="curve"/>
      <point x="50" y="491"/>
      <point x="50" y="493"/>
      <point x="51" y="493" type="curve"/>
      <point x="50" y="488"/>
      <point x="50" y="490"/>
      <point x="50" y="491" type="curve"/>
      <point x="50" y="490" type="line" smooth="yes"/>
      <point x="50" y="10" type="line" smooth="yes"/>
      <point x="50" y="5"/>
      <point x="55" y="0"/>
      <point x="60" y="0" type="curve" smooth="yes"/>
      <point x="65" y="0"/>
      <point x="70" y="5"/>
      <point x="70" y="10" type="curve" smooth="yes"/>
      <point x="70" y="446" type="line"/>
      <point x="166" y="246" type="line" smooth="yes"/>
      <point x="167" y="245" type="line"/>
      <point x="170" y="242"/>
      <point x="169" y="242"/>
      <point x="168" y="244" type="curve"/>
      <point x="167" y="244"/>
      <point x="168" y="242"/>
      <point x="170" y="242" type="curve"/>
      <point x="171" y="241" type="line" smooth="yes"/>
      <point x="173" y="241" type="line"/>
      <point x="178" y="240"/>
      <point x="176" y="240"/>
      <point x="174" y="240" type="curve"/>
      <point x="173" y="240"/>
      <point x="175" y="240"/>
      <point x="177" y="241" type="curve"/>
      <point x="179" y="241" type="line" smooth="yes"/>
      <point x="180" y="242" type="line"/>
      <point x="183" y="245"/>
      <point x="182" y="243"/>
      <point x="181" y="243" type="curve"/>
      <point x="181" y="242"/>
      <point x="182" y="243"/>
      <point x="183" y="245" type="curve"/>
      <point x="184" y="246" type="line" smooth="yes"/>
      <point x="280" y="446" type="line"/>
      <point x="280" y="10" type="line" smooth="yes"/>
      <point x="280" y="5"/>
      <point x="285" y="0"/>
    </contour>
  </outline>
</glyph>
<glyph name="P" format="1">
  <advance width="350"/>
  <unicode hex="0050"/>
  <outline>
    <contour>
      <point x="280" y="480" type="line"/>
      <point x="280" y="260" type="line"/>
      <point x="70" y="260" type="line"/>
      <point x="70" y="480" type="line"/>
    </contour>
    <contour>
      <point x="70" y="10" type="curve" smooth="yes"/>
      <point x="70" y="240" type="line"/>
      <point x="290" y="240" type="line" smooth="yes"/>
      <point x="295" y="240"/>
      <point x="300" y="245"/>
      <point x="300" y="250" type="curve" smooth="yes"/>
      <point x="300" y="490" type="line" smooth="yes"/>
      <point x="300" y="495"/>
      <point x="295" y="500"/>
      <point x="290" y="500" type="curve" smooth="yes"/>
      <point x="60" y="500" type="line" smooth="yes"/>
      <point x="55" y="500"/>
      <point x="50" y="495"/>
      <point x="50" y="490" type="curve" smooth="yes"/>
      <point x="50" y="10" type="line" smooth="yes"/>
      <point x="50" y="5"/>
      <point x="55" y="0"/>
      <point x="60" y="0" type="curve" smooth="yes"/>
      <point x="65" y="0"/>
      <point x="70" y="5"/>
    </contour>
  </outline>
</glyph>
<glyph name="Q" format="1">
  <advance width="350"/>
  <unicode hex="0051"/>
  <outline>
    <contour>
      <point x="166" y="246" type="curve" smooth="yes"/>
      <point x="274" y="20" type="line"/>
      <point x="70" y="20" type="line"/>
      <point x="70" y="480" type="line"/>
      <point x="280" y="480" type="line"/>
      <point x="280" y="54" type="line"/>
      <point x="184" y="254" type="line" smooth="yes"/>
      <point x="182" y="259"/>
      <point x="176" y="261"/>
      <point x="171" y="259" type="curve" smooth="yes"/>
      <point x="166" y="257"/>
      <point x="164" y="251"/>
    </contour>
    <contour>
      <point x="290" y="0" type="line" smooth="yes"/>
      <point x="293" y="1" type="line"/>
      <point x="294" y="1" type="line" smooth="yes"/>
      <point x="294" y="1" type="line"/>
      <point x="292" y="0"/>
      <point x="293" y="1"/>
      <point x="295" y="2" type="curve"/>
      <point x="296" y="2"/>
      <point x="297" y="3"/>
      <point x="298" y="5" type="curve"/>
      <point x="300" y="9"/>
      <point x="300" y="7"/>
      <point x="299" y="7" type="curve"/>
      <point x="300" y="12"/>
      <point x="300" y="10"/>
      <point x="300" y="9" type="curve"/>
      <point x="300" y="10" type="line" smooth="yes"/>
      <point x="300" y="490" type="line" smooth="yes"/>
      <point x="300" y="495"/>
      <point x="295" y="500"/>
      <point x="290" y="500" type="curve" smooth="yes"/>
      <point x="60" y="500" type="line" smooth="yes"/>
      <point x="55" y="500"/>
      <point x="50" y="495"/>
      <point x="50" y="490" type="curve" smooth="yes"/>
      <point x="50" y="10" type="line" smooth="yes"/>
      <point x="50" y="5"/>
      <point x="55" y="0"/>
      <point x="60" y="0" type="curve" smooth="yes"/>
    </contour>
  </outline>
</glyph>
<glyph name="R" format="1">
  <advance width="350"/>
  <unicode hex="0052"/>
  <outline>
    <contour>
      <point x="274" y="480" type="line"/>
      <point x="169" y="260" type="line"/>
      <point x="70" y="260" type="line"/>
      <point x="70" y="480" type="line"/>
    </contour>
    <contour>
      <point x="60" y="0" type="curve" smooth="yes"/>
      <point x="65" y="0"/>
      <point x="70" y="5"/>
      <point x="70" y="10" type="curve" smooth="yes"/>
      <point x="70" y="240" type="line"/>
      <point x="169" y="240" type="line"/>
      <point x="281" y="6" type="line" smooth="yes"/>
      <point x="283" y="1"/>
      <point x="289" y="-1"/>
      <point x="294" y="1" type="curve" smooth="yes"/>
      <point x="299" y="3"/>
      <point x="301" y="9"/>
      <point x="299" y="14" type="curve" smooth="yes"/>
      <point x="186" y="250" type="line"/>
      <point x="299" y="486" type="line" smooth="yes"/>
      <point x="299" y="488" type="line"/>
      <point x="300" y="490" type="line" smooth="yes"/>
      <point x="300" y="492"/>
      <point x="299" y="493"/>
      <point x="298" y="495" type="curve"/>
      <point x="295" y="499"/>
      <point x="295" y="498"/>
      <point x="296" y="497" type="curve"/>
      <point x="292" y="500"/>
      <point x="293" y="500"/>
      <point x="295" y="499" type="curve"/>
      <point x="294" y="499" type="line" smooth="yes"/>
      <point x="292" y="499" type="line"/>
      <point x="290" y="500" type="line" smooth="yes"/>
      <point x="60" y="500" type="line" smooth="yes"/>
      <point x="55" y="500"/>
      <point x="50" y="495"/>
      <point x="50" y="490" type="curve" smooth="yes"/>
      <point x="50" y="10" type="line" smooth="yes"/>
      <point x="50" y="5"/>
      <point x="55" y="0"/>
    </contour>
  </outline>
</glyph>
<glyph name="U" format="1">
  <advance width="350"/>
  <unicode hex="0055"/>
  <outline>
    <contour>
      <point x="290" y="0" type="line" smooth="yes"/>
      <point x="295" y="0"/>
      <point x="300" y="5"/>
      <point x="300" y="10" type="curve" smooth="yes"/>
      <point x="300" y="490" type="line" smooth="yes"/>
      <point x="300" y="495"/>
      <point x="295" y="500"/>
      <point x="290" y="500" type="curve" smooth="yes"/>
      <point x="285" y="500"/>
      <point x="280" y="495"/>
      <point x="280" y="490" type="curve" smooth="yes"/>
      <point x="280" y="20" type="line"/>
      <point x="70" y="20" type="line"/>
      <point x="70" y="490" type="line" smooth="yes"/>
      <point x="70" y="495"/>
      <point x="65" y="500"/>
      <point x="60" y="500" type="curve" smooth="yes"/>
      <point x="55" y="500"/>
      <point x="50" y="495"/>
      <point x="50" y="490" type="curve" smooth="yes"/>
      <point x="50" y="10" type="line" smooth="yes"/>
      <point x="50" y="5"/>
      <point x="55" y="0"/>
      <point x="60" y="0" type="curve" smooth="yes"/>
    </contour>
  </outline>
</glyph>
<glyph name="V" format="1">
  <advance width="350.379000772"/>
  <unicode hex="0056"/>
  <outline>
    <contour>
      <point x="177.189500386" y="0" type="line" smooth="yes"/>
      <point x="177.189500386" y="0" type="line"/>
      <point x="176.189500386" y="-1"/>
      <point x="178.189500386" y="0"/>
      <point x="180.189500386" y="2" type="curve"/>
      <point x="179.189500386" y="1"/>
      <point x="181.189500386" y="2"/>
      <point x="182.189500386" y="3" type="curve"/>
      <point x="184.189500386" y="6"/>
      <point x="184.189500386" y="5"/>
      <point x="183.189500386" y="4" type="curve"/>
      <point x="185.189500386" y="10"/>
      <point x="185.189500386" y="9"/>
      <point x="185.189500386" y="7" type="curve"/>
      <point x="185.189500386" y="8" type="line" smooth="yes"/>
      <point x="300.189500386" y="488" type="line" smooth="yes"/>
      <point x="301.189500386" y="493"/>
      <point x="298.189500386" y="498"/>
      <point x="292.189500386" y="500" type="curve" smooth="yes"/>
      <point x="287.189500386" y="501"/>
      <point x="282.189500386" y="498"/>
      <point x="280.189500386" y="492" type="curve" smooth="yes"/>
      <point x="175.189500386" y="54" type="line"/>
      <point x="70.1895003862" y="492" type="line" smooth="yes"/>
      <point x="68.1895003862" y="498"/>
      <point x="63.1895003862" y="501"/>
      <point x="58.1895003862" y="500" type="curve" smooth="yes"/>
      <point x="52.1895003862" y="498"/>
      <point x="49.1895003862" y="493"/>
      <point x="50.1895003862" y="488" type="curve" smooth="yes"/>
      <point x="165.189500386" y="8" type="line" smooth="yes"/>
      <point x="165.189500386" y="8" type="line"/>
      <point x="164.189500386" y="9"/>
      <point x="165.189500386" y="6"/>
      <point x="167.189500386" y="5" type="curve"/>
      <point x="166.189500386" y="6"/>
      <point x="167.189500386" y="4"/>
      <point x="168.189500386" y="3" type="curve"/>
      <point x="171.189500386" y="1"/>
      <point x="170.189500386" y="1"/>
      <point x="169.189500386" y="2" type="curve"/>
      <point x="175.189500386" y="0"/>
      <point x="174.189500386" y="0"/>
      <point x="172.189500386" y="0" type="curve"/>
      <point x="173.189500386" y="0" type="line" smooth="yes"/>
      <point x="175.189500386" y="0" type="line"/>
    </contour>
  </outline>
</glyph>
<glyph name="Y" format="1">
  <advance width="349.532813659"/>
  <unicode hex="0059"/>
  <outline>
    <contour>
      <point x="174.76640683" y="0" type="curve" smooth="yes"/>
      <point x="179.76640683" y="0"/>
      <point x="184.76640683" y="5"/>
      <point x="184.76640683" y="10" type="curve" smooth="yes"/>
      <point x="184.76640683" y="248" type="line"/>
      <point x="298.76640683" y="486" type="line" smooth="yes"/>
      <point x="300.76640683" y="491"/>
      <point x="298.76640683" y="497"/>
      <point x="293.76640683" y="499" type="curve" smooth="yes"/>
      <point x="288.76640683" y="501"/>
      <point x="282.76640683" y="499"/>
      <point x="280.76640683" y="494" type="curve" smooth="yes"/>
      <point x="174.76640683" y="273" type="line"/>
      <point x="68.7664068297" y="494" type="line" smooth="yes"/>
      <point x="66.7664068297" y="499"/>
      <point x="60.7664068297" y="501"/>
      <point x="55.7664068297" y="499" type="curve" smooth="yes"/>
      <point x="50.7664068297" y="497"/>
      <point x="48.7664068297" y="491"/>
      <point x="50.7664068297" y="486" type="curve" smooth="yes"/>
      <point x="164.76640683" y="248" type="line"/>
      <point x="164.76640683" y="10" type="line" smooth="yes"/>
      <point x="164.76640683" y="5"/>
      <point x="169.76640683" y="0"/>
    </contour>
  </outline>
</glyph>
<glyph name="bracketleft" format="1">
  <advance width="350"/>
  <unicode hex="005B"/>
  <outline>
    <contour>
      <point x="60" y="0" type="curve" smooth="yes"/>
      <point x="175" y="0" type="line" smooth="yes"/>
      <point x="180" y="0"/>
      <point x="185" y="5"/>
      <point x="185" y="10" type="curve" smooth="yes"/>
      <point x="185" y="15"/>
      <point x="180" y="20"/>
      <point x="175" y="20" type="curve" smooth="yes"/>
      <point x="70" y="20" type="line"/>
      <point x="70" y="480" type="line"/>
      <point x="175" y="480" type="line" smooth="yes"/>
      <point x="180" y="480"/>
      <point x="185" y="485"/>
      <point x="185" y="490" type="curve" smooth="yes"/>
      <point x="185" y="495"/>
      <point x="180" y="500"/>
      <point x="175" y="500" type="curve" smooth="yes"/>
      <point x="60" y="500" type="line" smooth="yes"/>
      <point x="55" y="500"/>
      <point x="50" y="495"/>
      <point x="50" y="490" type="curve" smooth="yes"/>
      <point x="50" y="10" type="line" smooth="yes"/>
      <point x="50" y="5"/>
      <point x="55" y="0"/>
    </contour>
  </outline>
</glyph>
<glyph name="bracketright" format="1">
  <advance width="350"/>
  <unicode hex="005D"/>
  <outline>
    <contour>
      <point x="290" y="0" type="line" smooth="yes"/>
      <point x="295" y="0"/>
      <point x="300" y="5"/>
      <point x="300" y="10" type="curve" smooth="yes"/>
      <point x="300" y="490" type="line" smooth="yes"/>
      <point x="300" y="495"/>
      <point x="295" y="500"/>
      <point x="290" y="500" type="curve" smooth="yes"/>
      <point x="175" y="500" type="line" smooth="yes"/>
      <point x="170" y="500"/>
      <point x="165" y="495"/>
      <point x="165" y="490" type="curve" smooth="yes"/>
      <point x="165" y="485"/>
      <point x="170" y="480"/>
      <point x="175" y="480" type="curve" smooth="yes"/>
      <point x="280" y="480" type="line"/>
      <point x="280" y="20" type="line"/>
      <point x="175" y="20" type="line" smooth="yes"/>
      <point x="170" y="20"/>
      <point x="165" y="15"/>
      <point x="165" y="10" type="curve" smooth="yes"/>
      <point x="165" y="5"/>
      <point x="170" y="0"/>
      <point x="175" y="0" type="curve" smooth="yes"/>
    </contour>
  </outline>
</glyph>
<glyph name="asciicircum" format="1">
  <advance width="349.532813659"/>
  <unicode hex="005E"/>
  <outline>
    <contour>
      <point x="68.7664068297" y="246" type="curve" smooth="yes"/>
      <point x="174.76640683" y="467" type="line"/>
      <point x="280.76640683" y="246" type="line" smooth="yes"/>
      <point x="282.76640683" y="241"/>
      <point x="288.76640683" y="239"/>
      <point x="293.76640683" y="241" type="curve" smooth="yes"/>
      <point x="298.76640683" y="243"/>
      <point x="300.76640683" y="249"/>
      <point x="298.76640683" y="254" type="curve" smooth="yes"/>
      <point x="183.76640683" y="494" type="line" smooth="yes"/>
      <point x="182.76640683" y="495" type="line"/>
      <point x="179.76640683" y="498"/>
      <point x="180.76640683" y="498"/>
      <point x="181.76640683" y="496" type="curve"/>
      <point x="182.76640683" y="496"/>
      <point x="181.76640683" y="498"/>
      <point x="179.76640683" y="498" type="curve"/>
      <point x="178.76640683" y="499" type="line" smooth="yes"/>
      <point x="176.76640683" y="499" type="line"/>
      <point x="171.76640683" y="500"/>
      <point x="173.76640683" y="500"/>
      <point x="175.76640683" y="500" type="curve"/>
      <point x="176.76640683" y="500"/>
      <point x="174.76640683" y="500"/>
      <point x="172.76640683" y="499" type="curve"/>
      <point x="170.76640683" y="499" type="line" smooth="yes"/>
      <point x="169.76640683" y="498" type="line"/>
      <point x="166.76640683" y="495"/>
      <point x="167.76640683" y="497"/>
      <point x="168.76640683" y="497" type="curve"/>
      <point x="168.76640683" y="498"/>
      <point x="167.76640683" y="497"/>
      <point x="166.76640683" y="495" type="curve"/>
      <point x="165.76640683" y="494" type="line" smooth="yes"/>
      <point x="50.7664068297" y="254" type="line" smooth="yes"/>
      <point x="48.7664068297" y="249"/>
      <point x="50.7664068297" y="243"/>
      <point x="55.7664068297" y="241" type="curve" smooth="yes"/>
      <point x="60.7664068297" y="239"/>
      <point x="66.7664068297" y="241"/>
    </contour>
  </outline>
</glyph>
<glyph name="grave" format="1">
  <advance width="349.532813659"/>
  <unicode hex="0060"/>
  <outline>
    <contour>
      <point x="55.7664068297" y="499" type="curve" smooth="yes"/>
      <point x="50.7664068297" y="497"/>
      <point x="48.7664068297" y="491"/>
      <point x="50.7664068297" y="486" type="curve" smooth="yes"/>
      <point x="165.76640683" y="246" type="line" smooth="yes"/>
      <point x="167.76640683" y="241"/>
      <point x="173.76640683" y="239"/>
      <point x="178.76640683" y="241" type="curve" smooth="yes"/>
      <point x="183.76640683" y="243"/>
      <point x="185.76640683" y="249"/>
      <point x="183.76640683" y="254" type="curve" smooth="yes"/>
      <point x="68.7664068297" y="494" type="line" smooth="yes"/>
      <point x="66.7664068297" y="499"/>
      <point x="60.7664068297" y="501"/>
    </contour>
  </outline>
</glyph>
<glyph name="b" format="1">
  <advance width="350"/>
  <unicode hex="0062"/>
  <outline>
    <contour>
      <point x="274" y="480" type="line"/>
      <point x="169" y="260" type="line"/>
      <point x="70" y="260" type="line"/>
      <point x="70" y="480" type="line"/>
    </contour>
    <contour>
      <point x="280" y="240" type="line"/>
      <point x="280" y="20" type="line"/>
      <point x="70" y="20" type="line"/>
      <point x="70" y="240" type="line"/>
    </contour>
    <contour>
      <point x="290" y="0" type="line" smooth="yes"/>
      <point x="295" y="0"/>
      <point x="300" y="5"/>
      <point x="300" y="10" type="curve" smooth="yes"/>
      <point x="300" y="250" type="line" smooth="yes"/>
      <point x="300" y="255"/>
      <point x="295" y="260"/>
      <point x="290" y="260" type="curve" smooth="yes"/>
      <point x="191" y="260" type="line"/>
      <point x="299" y="486" type="line" smooth="yes"/>
      <point x="299" y="488" type="line"/>
      <point x="300" y="490" type="line" smooth="yes"/>
      <point x="300" y="492"/>
      <point x="299" y="493"/>
      <point x="298" y="495" type="curve"/>
      <point x="295" y="499"/>
      <point x="295" y="498"/>
      <point x="296" y="497" type="curve"/>
      <point x="292" y="500"/>
      <point x="293" y="500"/>
      <point x="295" y="499" type="curve"/>
      <point x="294" y="499" type="line" smooth="yes"/>
      <point x="292" y="499" type="line"/>
      <point x="290" y="500" type="line" smooth="yes"/>
      <point x="60" y="500" type="line" smooth="yes"/>
      <point x="55" y="500"/>
      <point x="50" y="495"/>
      <point x="50" y="490" type="curve" smooth="yes"/>
      <point x="50" y="10" type="line" smooth="yes"/>
      <point x="50" y="5"/>
      <point x="55" y="0"/>
      <point x="60" y="0" type="curve" smooth="yes"/>
    </contour>
  </outline>
</glyph>
<glyph name="d" format="1">
  <advance width="350"/>
  <unicode hex="0064"/>
  <outline>
    <contour>
      <point x="60.0" y="0.0" type="curve" smooth="yes"/>
      <point x="175.0" y="0.0" type="line" smooth="yes"/>
      <point x="177.0" y="0.0"/>
      <point x="178.0" y="1.0"/>
      <point x="180.0" y="2.0" type="curve"/>
      <point x="184.0" y="5.0"/>
      <point x="183.0" y="4.0"/>
      <point x="182.0" y="4.0" type="curve"/>
      <point x="185.0" y="8.0"/>
      <point x="184.0" y="7.0"/>
      <point x="184.0" y="5.0" type="curve"/>
      <point x="184.0" y="6.0" type="line" smooth="yes"/>
      <point x="299.0" y="246.0" type="line" smooth="yes"/>
      <point x="299.0" y="248.0" type="line"/>
      <point x="300.0" y="252.0"/>
      <point x="300.0" y="250.0"/>
      <point x="300.0" y="249.0" type="curve"/>
      <point x="300.0" y="248.0"/>
      <point x="300.0" y="251.0"/>
      <point x="299.0" y="252.0" type="curve"/>
      <point x="299.0" y="254.0" type="line" smooth="yes"/>
      <point x="184.0" y="494.0" type="line" smooth="yes"/>
      <point x="184.0" y="494.0" type="line"/>
      <point x="185.0" y="492.0"/>
      <point x="184.0" y="493.0"/>
      <point x="183.0" y="495.0" type="curve"/>
      <point x="183.0" y="496.0"/>
      <point x="182.0" y="497.0"/>
      <point x="180.0" y="498.0" type="curve"/>
      <point x="176.0" y="500.0"/>
      <point x="177.0" y="500.0"/>
      <point x="178.0" y="499.0" type="curve"/>
      <point x="173.0" y="500.0"/>
      <point x="174.0" y="500.0"/>
      <point x="176.0" y="500.0" type="curve"/>
      <point x="175.0" y="500.0" type="line" smooth="yes"/>
      <point x="60.0" y="500.0" type="line" smooth="yes"/>
      <point x="55.0" y="500.0"/>
      <point x="50.0" y="495.0"/>
      <point x="50.0" y="490.0" type="curve" smooth="yes"/>
      <point x="50.0" y="10.0" type="line" smooth="yes"/>
      <point x="50.0" y="5.0"/>
      <point x="55.0" y="0.0"/>
    </contour>
    <contour>
      <point x="279.0" y="250.0" type="line"/>
      <point x="169.0" y="20.0" type="line"/>
      <point x="70.0" y="20.0" type="line"/>
      <point x="70.0" y="480.0" type="line"/>
      <point x="169.0" y="480.0" type="line"/>
    </contour>
  </outline>
</glyph>
<glyph name="e" format="1">
  <advance width="350"/>
  <unicode hex="0065"/>
  <outline>
    <contour>
      <point x="60.0" y="0.0" type="curve" smooth="yes"/>
      <point x="290.0" y="0.0" type="line" smooth="yes"/>
      <point x="295.0" y="0.0"/>
      <point x="300.0" y="5.0"/>
      <point x="300.0" y="10.0" type="curve" smooth="yes"/>
      <point x="300.0" y="15.0"/>
      <point x="295.0" y="20.0"/>
      <point x="290.0" y="20.0" type="curve" smooth="yes"/>
      <point x="70.0" y="20.0" type="line"/>
      <point x="70.0" y="240.0" type="line"/>
      <point x="175.0" y="240.0" type="line" smooth="yes"/>
      <point x="180.0" y="240.0"/>
      <point x="185.0" y="245.0"/>
      <point x="185.0" y="250.0" type="curve" smooth="yes"/>
      <point x="185.0" y="255.0"/>
      <point x="180.0" y="260.0"/>
      <point x="175.0" y="260.0" type="curve" smooth="yes"/>
      <point x="70.0" y="260.0" type="line"/>
      <point x="70.0" y="480.0" type="line"/>
      <point x="290.0" y="480.0" type="line" smooth="yes"/>
      <point x="295.0" y="480.0"/>
      <point x="300.0" y="485.0"/>
      <point x="300.0" y="490.0" type="curve" smooth="yes"/>
      <point x="300.0" y="495.0"/>
      <point x="295.0" y="500.0"/>
      <point x="290.0" y="500.0" type="curve" smooth="yes"/>
      <point x="60.0" y="500.0" type="line" smooth="yes"/>
      <point x="55.0" y="500.0"/>
      <point x="50.0" y="495.0"/>
      <point x="50.0" y="490.0" type="curve" smooth="yes"/>
      <point x="50.0" y="10.0" type="line" smooth="yes"/>
      <point x="50.0" y="5.0"/>
      <point x="55.0" y="0.0"/>
    </contour>
  </outline>
</glyph>
<glyph name="k" format="1">
  <advance width="350.0"/>
  <unicode hex="006B"/>
  <outline>
    <contour>
      <point x="60" y="0" type="curve" smooth="yes"/>
      <point x="65" y="0"/>
      <point x="70" y="5"/>
      <point x="70" y="10" type="curve" smooth="yes"/>
      <point x="70" y="225" type="line"/>
      <point x="283" y="3" type="line" smooth="yes"/>
      <point x="287" y="-1"/>
      <point x="293" y="-1"/>
      <point x="297" y="3" type="curve" smooth="yes"/>
      <point x="301" y="7"/>
      <point x="301" y="13"/>
      <point x="297" y="17" type="curve" smooth="yes"/>
      <point x="74" y="250" type="line"/>
      <point x="297" y="483" type="line" smooth="yes"/>
      <point x="301" y="487"/>
      <point x="301" y="493"/>
      <point x="297" y="497" type="curve" smooth="yes"/>
      <point x="293" y="501"/>
      <point x="287" y="501"/>
      <point x="283" y="497" type="curve" smooth="yes"/>
      <point x="70" y="275" type="line"/>
      <point x="70" y="490" type="line" smooth="yes"/>
      <point x="70" y="495"/>
      <point x="65" y="500"/>
      <point x="60" y="500" type="curve" smooth="yes"/>
      <point x="55" y="500"/>
      <point x="50" y="495"/>
      <point x="50" y="490" type="curve" smooth="yes"/>
      <point x="50" y="10" type="line" smooth="yes"/>
      <point x="50" y="5"/>
      <point x="55" y="0"/>
    </contour>
  </outline>
</glyph>
<glyph name="n" format="1">
  <advance width="350"/>
  <unicode hex="006E"/>
  <outline>
    <contour>
      <point x="290" y="0" type="line" smooth="yes"/>
      <point x="293" y="1" type="line"/>
      <point x="294" y="1" type="line" smooth="yes"/>
      <point x="294" y="1" type="line"/>
      <point x="292" y="0"/>
      <point x="293" y="1"/>
      <point x="295" y="2" type="curve"/>
      <point x="296" y="2"/>
      <point x="297" y="3"/>
      <point x="298" y="5" type="curve"/>
      <point x="300" y="9"/>
      <point x="300" y="7"/>
      <point x="299" y="7" type="curve"/>
      <point x="300" y="12"/>
      <point x="300" y="10"/>
      <point x="300" y="9" type="curve"/>
      <point x="300" y="10" type="line" smooth="yes"/>
      <point x="300" y="490" type="line" smooth="yes"/>
      <point x="300" y="495"/>
      <point x="295" y="500"/>
      <point x="290" y="500" type="curve" smooth="yes"/>
      <point x="285" y="500"/>
      <point x="280" y="495"/>
      <point x="280" y="490" type="curve" smooth="yes"/>
      <point x="280" y="54" type="line"/>
      <point x="69" y="494" type="line" smooth="yes"/>
      <point x="69" y="494" type="line"/>
      <point x="70" y="492"/>
      <point x="69" y="493"/>
      <point x="68" y="495" type="curve"/>
      <point x="68" y="496"/>
      <point x="67" y="497"/>
      <point x="65" y="498" type="curve"/>
      <point x="61" y="500"/>
      <point x="62" y="500"/>
      <point x="63" y="499" type="curve"/>
      <point x="58" y="500"/>
      <point x="59" y="500"/>
      <point x="61" y="500" type="curve"/>
      <point x="60" y="500" type="line" smooth="yes"/>
      <point x="57" y="499" type="line"/>
      <point x="56" y="499" type="line" smooth="yes"/>
      <point x="56" y="499" type="line"/>
      <point x="58" y="500"/>
      <point x="57" y="499"/>
      <point x="55" y="498" type="curve"/>
      <point x="54" y="498"/>
      <point x="53" y="497"/>
      <point x="52" y="495" type="curve"/>
      <point x="50" y="491"/>
      <point x="50" y="493"/>
      <point x="51" y="493" type="curve"/>
      <point x="50" y="488"/>
      <point x="50" y="490"/>
      <point x="50" y="491" type="curve"/>
      <point x="50" y="490" type="line" smooth="yes"/>
      <point x="50" y="10" type="line" smooth="yes"/>
      <point x="50" y="5"/>
      <point x="55" y="0"/>
      <point x="60" y="0" type="curve" smooth="yes"/>
      <point x="65" y="0"/>
      <point x="70" y="5"/>
      <point x="70" y="10" type="curve" smooth="yes"/>
      <point x="70" y="446" type="line"/>
      <point x="281" y="6" type="line" smooth="yes"/>
      <point x="281" y="6" type="line"/>
      <point x="280" y="8"/>
      <point x="281" y="7"/>
      <point x="282" y="5" type="curve"/>
      <point x="282" y="4"/>
      <point x="283" y="3"/>
      <point x="285" y="2" type="curve"/>
      <point x="289" y="0"/>
      <point x="288" y="0"/>
      <point x="287" y="1" type="curve"/>
      <point x="292" y="0"/>
      <point x="291" y="0"/>
      <point x="289" y="0" type="curve"/>
    </contour>
  </outline>
</glyph>
<glyph name="t" format="1">
  <advance width="350"/>
  <unicode hex="0074"/>
  <outline>
    <contour>
      <point x="175" y="0" type="curve" smooth="yes"/>
      <point x="180" y="0"/>
      <point x="185" y="5"/>
      <point x="185" y="10" type="curve" smooth="yes"/>
      <point x="185" y="480" type="line"/>
      <point x="290" y="480" type="line" smooth="yes"/>
      <point x="295" y="480"/>
      <point x="300" y="485"/>
      <point x="300" y="490" type="curve" smooth="yes"/>
      <point x="300" y="495"/>
      <point x="295" y="500"/>
      <point x="290" y="500" type="curve" smooth="yes"/>
      <point x="60" y="500" type="line" smooth="yes"/>
      <point x="55" y="500"/>
      <point x="50" y="495"/>
      <point x="50" y="490" type="curve" smooth="yes"/>
      <point x="50" y="485"/>
      <point x="55" y="480"/>
      <point x="60" y="480" type="curve" smooth="yes"/>
      <point x="165" y="480" type="line"/>
      <point x="165" y="10" type="line" smooth="yes"/>
      <point x="165" y="5"/>
      <point x="170" y="0"/>
    </contour>
  </outline>
</glyph>
<glyph name="w" format="1">
  <advance width="350"/>
  <unicode hex="0077"/>
  <outline>
    <contour>
      <point x="290" y="0" type="line" smooth="yes"/>
      <point x="293" y="1" type="line"/>
      <point x="294" y="1" type="line" smooth="yes"/>
      <point x="294" y="1" type="line"/>
      <point x="292" y="0"/>
      <point x="293" y="1"/>
      <point x="295" y="2" type="curve"/>
      <point x="296" y="2"/>
      <point x="297" y="3"/>
      <point x="298" y="5" type="curve"/>
      <point x="300" y="9"/>
      <point x="300" y="7"/>
      <point x="299" y="7" type="curve"/>
      <point x="300" y="12"/>
      <point x="300" y="10"/>
      <point x="300" y="9" type="curve"/>
      <point x="300" y="10" type="line" smooth="yes"/>
      <point x="300" y="490" type="line" smooth="yes"/>
      <point x="300" y="495"/>
      <point x="295" y="500"/>
      <point x="290" y="500" type="curve" smooth="yes"/>
      <point x="285" y="500"/>
      <point x="280" y="495"/>
      <point x="280" y="490" type="curve" smooth="yes"/>
      <point x="280" y="54" type="line"/>
      <point x="184" y="254" type="line" smooth="yes"/>
      <point x="183" y="255" type="line"/>
      <point x="180" y="258"/>
      <point x="181" y="258"/>
      <point x="182" y="256" type="curve"/>
      <point x="183" y="256"/>
      <point x="182" y="258"/>
      <point x="180" y="258" type="curve"/>
      <point x="179" y="259" type="line" smooth="yes"/>
      <point x="177" y="259" type="line"/>
      <point x="172" y="260"/>
      <point x="174" y="260"/>
      <point x="176" y="260" type="curve"/>
      <point x="177" y="260"/>
      <point x="175" y="260"/>
      <point x="173" y="259" type="curve"/>
      <point x="171" y="259" type="line" smooth="yes"/>
      <point x="170" y="258" type="line"/>
      <point x="167" y="255"/>
      <point x="168" y="257"/>
      <point x="169" y="257" type="curve"/>
      <point x="169" y="258"/>
      <point x="168" y="257"/>
      <point x="167" y="255" type="curve"/>
      <point x="166" y="254" type="line" smooth="yes"/>
      <point x="70" y="54" type="line"/>
      <point x="70" y="490" type="line" smooth="yes"/>
      <point x="70" y="495"/>
      <point x="65" y="500"/>
      <point x="60" y="500" type="curve" smooth="yes"/>
      <point x="55" y="500"/>
      <point x="50" y="495"/>
      <point x="50" y="490" type="curve" smooth="yes"/>
      <point x="50" y="10" type="line" smooth="yes"/>
      <point x="50" y="8"/>
      <point x="51" y="7"/>
      <point x="52" y="5" type="curve"/>
      <point x="55" y="1"/>
      <point x="55" y="2"/>
      <point x="54" y="3" type="curve"/>
      <point x="58" y="0"/>
      <point x="57" y="0"/>
      <point x="55" y="1" type="curve"/>
      <point x="56" y="1" type="line" smooth="yes"/>
      <point x="58" y="1" type="line"/>
      <point x="60" y="0" type="line" smooth="yes"/>
      <point x="62" y="0"/>
      <point x="63" y="1"/>
      <point x="65" y="2" type="curve"/>
      <point x="69" y="5"/>
      <point x="68" y="4"/>
      <point x="67" y="4" type="curve"/>
      <point x="70" y="8"/>
      <point x="69" y="7"/>
      <point x="69" y="5" type="curve"/>
      <point x="69" y="6" type="line" smooth="yes"/>
      <point x="175" y="227" type="line"/>
      <point x="281" y="6" type="line" smooth="yes"/>
      <point x="281" y="6" type="line"/>
      <point x="280" y="8"/>
      <point x="281" y="7"/>
      <point x="282" y="5" type="curve"/>
      <point x="282" y="4"/>
      <point x="283" y="3"/>
      <point x="285" y="2" type="curve"/>
      <point x="289" y="0"/>
      <point x="288" y="0"/>
      <point x="287" y="1" type="curve"/>
      <point x="292" y="0"/>
      <point x="291" y="0"/>
      <point x="289" y="0" type="curve"/>
    </contour>
  </outline>
</glyph>
<glyph name="x" format="1">
  <advance width="349.532813659"/>
  <unicode hex="0078"/>
  <outline>
    <contour>
      <point x="68.7664068297" y="6" type="curve" smooth="yes"/>
      <point x="174.76640683" y="227" type="line"/>
      <point x="280.76640683" y="6" type="line" smooth="yes"/>
      <point x="282.76640683" y="1"/>
      <point x="288.76640683" y="-1"/>
      <point x="293.76640683" y="1" type="curve" smooth="yes"/>
      <point x="298.76640683" y="3"/>
      <point x="300.76640683" y="9"/>
      <point x="298.76640683" y="14" type="curve" smooth="yes"/>
      <point x="185.76640683" y="250" type="line"/>
      <point x="298.76640683" y="486" type="line" smooth="yes"/>
      <point x="300.76640683" y="491"/>
      <point x="298.76640683" y="497"/>
      <point x="293.76640683" y="499" type="curve" smooth="yes"/>
      <point x="288.76640683" y="501"/>
      <point x="282.76640683" y="499"/>
      <point x="280.76640683" y="494" type="curve" smooth="yes"/>
      <point x="174.76640683" y="273" type="line"/>
      <point x="68.7664068297" y="494" type="line" smooth="yes"/>
      <point x="66.7664068297" y="499"/>
      <point x="60.7664068297" y="501"/>
      <point x="55.7664068297" y="499" type="curve" smooth="yes"/>
      <point x="50.7664068297" y="497"/>
      <point x="48.7664068297" y="491"/>
      <point x="50.7664068297" y="486" type="curve" smooth="yes"/>
      <point x="163.76640683" y="250" type="line"/>
      <point x="50.7664068297" y="14" type="line" smooth="yes"/>
      <point x="48.7664068297" y="9"/>
      <point x="50.7664068297" y="3"/>
      <point x="55.7664068297" y="1" type="curve" smooth="yes"/>
      <point x="60.7664068297" y="-1"/>
      <point x="66.7664068297" y="1"/>
    </contour>
  </outline>
</glyph>
<glyph name="z" format="1">
  <advance width="350"/>
  <unicode hex="007A"/>
  <outline>
    <contour>
      <point x="60" y="0" type="line" smooth="yes"/>
      <point x="290" y="0" type="line" smooth="yes"/>
      <point x="295" y="0"/>
      <point x="300" y="5"/>
      <point x="300" y="10" type="curve" smooth="yes"/>
      <point x="300" y="15"/>
      <point x="295" y="20"/>
      <point x="290" y="20" type="curve" smooth="yes"/>
      <point x="76" y="20" type="line"/>
      <point x="299" y="486" type="line" smooth="yes"/>
      <point x="299" y="488" type="line"/>
      <point x="300" y="490" type="line" smooth="yes"/>
      <point x="300" y="492"/>
      <point x="299" y="493"/>
      <point x="298" y="495" type="curve"/>
      <point x="295" y="499"/>
      <point x="295" y="498"/>
      <point x="296" y="497" type="curve"/>
      <point x="292" y="500"/>
      <point x="293" y="500"/>
      <point x="295" y="499" type="curve"/>
      <point x="294" y="499" type="line" smooth="yes"/>
      <point x="292" y="499" type="line"/>
      <point x="290" y="500" type="line" smooth="yes"/>
      <point x="60" y="500" type="line" smooth="yes"/>
      <point x="55" y="500"/>
      <point x="50" y="495"/>
      <point x="50" y="490" type="curve" smooth="yes"/>
      <point x="50" y="485"/>
      <point x="55" y="480"/>
      <point x="60" y="480" type="curve" smooth="yes"/>
      <point x="274" y="480" type="line"/>
      <point x="51" y="14" type="line" smooth="yes"/>
      <point x="51" y="12" type="line"/>
      <point x="50" y="10" type="line" smooth="yes"/>
      <point x="50" y="8"/>
      <point x="51" y="7"/>
      <point x="52" y="5" type="curve"/>
      <point x="55" y="1"/>
      <point x="55" y="2"/>
      <point x="54" y="3" type="curve"/>
      <point x="58" y="0"/>
      <point x="57" y="0"/>
      <point x="55" y="1" type="curve"/>
      <point x="56" y="1" type="line" smooth="yes"/>
      <point x="58" y="1" type="line"/>
    </contour>
  </outline>
</glyph>
<glyph name="braceleft" format="1">
  <advance width="350"/>
  <unicode hex="007B"/>
  <outline>
    <contour>
      <point x="60" y="0" type="curve" smooth="yes"/>
      <point x="175" y="0" type="line" smooth="yes"/>
      <point x="178" y="1" type="line"/>
      <point x="179" y="1" type="line" smooth="yes"/>
      <point x="179" y="1" type="line"/>
      <point x="177" y="0"/>
      <point x="178" y="1"/>
      <point x="180" y="2" type="curve"/>
      <point x="181" y="2"/>
      <point x="182" y="3"/>
      <point x="183" y="5" type="curve"/>
      <point x="185" y="9"/>
      <point x="185" y="7"/>
      <point x="184" y="7" type="curve"/>
      <point x="185" y="12"/>
      <point x="185" y="10"/>
      <point x="185" y="9" type="curve"/>
      <point x="185" y="10" type="line" smooth="yes"/>
      <point x="184" y="13" type="line"/>
      <point x="184" y="14" type="line" smooth="yes"/>
      <point x="71" y="250" type="line"/>
      <point x="184" y="486" type="line" smooth="yes"/>
      <point x="184" y="488" type="line"/>
      <point x="185" y="490" type="line" smooth="yes"/>
      <point x="185" y="492"/>
      <point x="184" y="493"/>
      <point x="183" y="495" type="curve"/>
      <point x="180" y="499"/>
      <point x="180" y="498"/>
      <point x="181" y="497" type="curve"/>
      <point x="177" y="500"/>
      <point x="178" y="500"/>
      <point x="180" y="499" type="curve"/>
      <point x="179" y="499" type="line" smooth="yes"/>
      <point x="177" y="499" type="line"/>
      <point x="175" y="500" type="line" smooth="yes"/>
      <point x="60" y="500" type="line" smooth="yes"/>
      <point x="55" y="500"/>
      <point x="50" y="495"/>
      <point x="50" y="490" type="curve" smooth="yes"/>
      <point x="50" y="10" type="line" smooth="yes"/>
      <point x="50" y="5"/>
      <point x="55" y="0"/>
    </contour>
    <contour>
      <point x="159" y="480" type="line"/>
      <point x="70" y="294" type="line"/>
      <point x="70" y="480" type="line"/>
    </contour>
    <contour>
      <point x="159" y="20" type="line"/>
      <point x="70" y="20" type="line"/>
      <point x="70" y="206" type="line"/>
    </contour>
  </outline>
</glyph>
<glyph name="bar" format="1">
  <advance width="350"/>
  <unicode hex="007C"/>
  <outline>
    <contour>
      <point x="175" y="500" type="curve" smooth="yes"/>
      <point x="170" y="500"/>
      <point x="165" y="495"/>
      <point x="165" y="490" type="curve" smooth="yes"/>
      <point x="165" y="10" type="line" smooth="yes"/>
      <point x="165" y="5"/>
      <point x="170" y="0"/>
      <point x="175" y="0" type="curve" smooth="yes"/>
      <point x="180" y="0"/>
      <point x="185" y="5"/>
      <point x="185" y="10" type="curve" smooth="yes"/>
      <point x="185" y="490" type="line" smooth="yes"/>
      <point x="185" y="495"/>
      <point x="180" y="500"/>
    </contour>
  </outline>
</glyph>
<glyph name="braceright" format="1">
  <advance width="350"/>
  <unicode hex="007D"/>
  <outline>
    <contour>
      <point x="280" y="480" type="line"/>
      <point x="280" y="294" type="line"/>
      <point x="191" y="480" type="line"/>
    </contour>
    <contour>
      <point x="280" y="20" type="line"/>
      <point x="191" y="20" type="line"/>
      <point x="280" y="206" type="line"/>
    </contour>
    <contour>
      <point x="290" y="0" type="curve" smooth="yes"/>
      <point x="295" y="0"/>
      <point x="300" y="5"/>
      <point x="300" y="10" type="curve" smooth="yes"/>
      <point x="300" y="490" type="line" smooth="yes"/>
      <point x="300" y="495"/>
      <point x="295" y="500"/>
      <point x="290" y="500" type="curve" smooth="yes"/>
      <point x="175" y="500" type="line" smooth="yes"/>
      <point x="172" y="499" type="line"/>
      <point x="171" y="499" type="line" smooth="yes"/>
      <point x="171" y="499" type="line"/>
      <point x="173" y="500"/>
      <point x="172" y="499"/>
      <point x="170" y="498" type="curve"/>
      <point x="169" y="498"/>
      <point x="168" y="497"/>
      <point x="167" y="495" type="curve"/>
      <point x="165" y="491"/>
      <point x="165" y="493"/>
      <point x="166" y="493" type="curve"/>
      <point x="165" y="488"/>
      <point x="165" y="490"/>
      <point x="165" y="491" type="curve"/>
      <point x="165" y="490" type="line" smooth="yes"/>
      <point x="166" y="487" type="line"/>
      <point x="166" y="486" type="line" smooth="yes"/>
      <point x="279" y="250" type="line"/>
      <point x="166" y="14" type="line" smooth="yes"/>
      <point x="166" y="12" type="line"/>
      <point x="165" y="10" type="line" smooth="yes"/>
      <point x="165" y="8"/>
      <point x="166" y="7"/>
      <point x="167" y="5" type="curve"/>
      <point x="170" y="1"/>
      <point x="170" y="2"/>
      <point x="169" y="3" type="curve"/>
      <point x="173" y="0"/>
      <point x="172" y="0"/>
      <point x="170" y="1" type="curve"/>
      <point x="171" y="1" type="line" smooth="yes"/>
      <point x="173" y="1" type="line"/>
      <point x="288" y="0"/>
      <point x="289" y="0"/>
    </contour>
  </outline>
</glyph>
<glyph name="asciitilde" format="1">
  <advance width="350"/>
  <unicode hex="007E"/>
  <outline>
    <contour>
      <point x="290" y="240" type="line" smooth="yes"/>
      <point x="295" y="240"/>
      <point x="300" y="245"/>
      <point x="300" y="250" type="curve" smooth="yes"/>
      <point x="300" y="490" type="line" smooth="yes"/>
      <point x="300" y="495"/>
      <point x="295" y="500"/>
      <point x="290" y="500" type="curve" smooth="yes"/>
      <point x="285" y="500"/>
      <point x="280" y="495"/>
      <point x="280" y="490" type="curve" smooth="yes"/>
      <point x="280" y="260" type="line"/>
      <point x="185" y="260" type="line"/>
      <point x="185" y="490" type="line" smooth="yes"/>
      <point x="185" y="495"/>
      <point x="180" y="500"/>
      <point x="175" y="500" type="curve" smooth="yes"/>
      <point x="60" y="500" type="line" smooth="yes"/>
      <point x="55" y="500"/>
      <point x="50" y="495"/>
      <point x="50" y="490" type="curve" smooth="yes"/>
      <point x="50" y="250" type="line" smooth="yes"/>
      <point x="50" y="245"/>
      <point x="55" y="240"/>
      <point x="60" y="240" type="curve" smooth="yes"/>
      <point x="65" y="240"/>
      <point x="70" y="245"/>
      <point x="70" y="250" type="curve" smooth="yes"/>
      <point x="70" y="480" type="line"/>
      <point x="165" y="480" type="line"/>
      <point x="165" y="250" type="line" smooth="yes"/>
      <point x="165" y="245"/>
      <point x="170" y="240"/>
      <point x="175" y="240" type="curve" smooth="yes"/>
    </contour>
  </outline>
</glyph>
<glyph name="yen" format="1">
  <advance width="350"/>
  <unicode hex="00A5"/>
  <outline>
    <contour>
      <point x="175" y="0" type="curve" smooth="yes"/>
      <point x="180" y="0"/>
      <point x="185" y="5"/>
      <point x="185" y="10" type="curve" smooth="yes"/>
      <point x="185" y="240" type="line"/>
      <point x="290" y="240" type="line" smooth="yes"/>
      <point x="295" y="240"/>
      <point x="300" y="245"/>
      <point x="300" y="250" type="curve" smooth="yes"/>
      <point x="300" y="255"/>
      <point x="295" y="260"/>
      <point x="290" y="260" type="curve" smooth="yes"/>
      <point x="191" y="260" type="line"/>
      <point x="299" y="486" type="line" smooth="yes"/>
      <point x="301" y="491"/>
      <point x="299" y="497"/>
      <point x="294" y="499" type="curve" smooth="yes"/>
      <point x="289" y="501"/>
      <point x="283" y="499"/>
      <point x="281" y="494" type="curve" smooth="yes"/>
      <point x="175" y="273" type="line"/>
      <point x="69" y="494" type="line" smooth="yes"/>
      <point x="67" y="499"/>
      <point x="61" y="501"/>
      <point x="56" y="499" type="curve" smooth="yes"/>
      <point x="51" y="497"/>
      <point x="49" y="491"/>
      <point x="51" y="486" type="curve" smooth="yes"/>
      <point x="159" y="260" type="line"/>
      <point x="60" y="260" type="line" smooth="yes"/>
      <point x="55" y="260"/>
      <point x="50" y="255"/>
      <point x="50" y="250" type="curve" smooth="yes"/>
      <point x="50" y="245"/>
      <point x="55" y="240"/>
      <point x="60" y="240" type="curve" smooth="yes"/>
      <point x="165" y="240" type="line"/>
      <point x="165" y="10" type="line" smooth="yes"/>
      <point x="165" y="5"/>
      <point x="170" y="0"/>
    </contour>
  </outline>
</glyph>
<glyph name="guillemotleft" format="1">
  <advance width="349.76640683"/>
  <unicode hex="00AB"/>
  <outline>
    <contour>
      <point x="294" y="1" type="curve" smooth="yes"/>
      <point x="299" y="3"/>
      <point x="301" y="9"/>
      <point x="299" y="14" type="curve" smooth="yes"/>
      <point x="186" y="250" type="line"/>
      <point x="299" y="486" type="line" smooth="yes"/>
      <point x="301" y="491"/>
      <point x="299" y="497"/>
      <point x="294" y="499" type="curve" smooth="yes"/>
      <point x="289" y="501"/>
      <point x="283" y="499"/>
      <point x="281" y="494" type="curve" smooth="yes"/>
      <point x="169" y="260" type="line"/>
      <point x="76" y="260" type="line"/>
      <point x="184" y="486" type="line" smooth="yes"/>
      <point x="186" y="491"/>
      <point x="184" y="497"/>
      <point x="179" y="499" type="curve" smooth="yes"/>
      <point x="174" y="501"/>
      <point x="168" y="499"/>
      <point x="166" y="494" type="curve" smooth="yes"/>
      <point x="51" y="254" type="line" smooth="yes"/>
      <point x="51" y="252" type="line"/>
      <point x="50" y="248"/>
      <point x="50" y="250"/>
      <point x="50" y="251" type="curve"/>
      <point x="50" y="250" type="line" smooth="yes"/>
      <point x="51" y="247" type="line"/>
      <point x="51" y="246" type="line" smooth="yes"/>
      <point x="166" y="6" type="line" smooth="yes"/>
      <point x="168" y="1"/>
      <point x="174" y="-1"/>
      <point x="179" y="1" type="curve" smooth="yes"/>
      <point x="184" y="3"/>
      <point x="186" y="9"/>
      <point x="184" y="14" type="curve" smooth="yes"/>
      <point x="76" y="240" type="line"/>
      <point x="169" y="240" type="line"/>
      <point x="281" y="6" type="line" smooth="yes"/>
      <point x="283" y="1"/>
      <point x="289" y="-1"/>
    </contour>
  </outline>
</glyph>
<glyph name="ae" format="1">
  <advance width="350"/>
  <unicode hex="00E6"/>
  <outline>
    <contour>
      <point x="175" y="0" type="curve" smooth="yes"/>
      <point x="290" y="0" type="line" smooth="yes"/>
      <point x="295" y="0"/>
      <point x="300" y="5"/>
      <point x="300" y="10" type="curve" smooth="yes"/>
      <point x="300" y="15"/>
      <point x="295" y="20"/>
      <point x="290" y="20" type="curve" smooth="yes"/>
      <point x="185" y="20" type="line"/>
      <point x="185" y="240" type="line"/>
      <point x="290" y="240" type="line" smooth="yes"/>
      <point x="295" y="240"/>
      <point x="300" y="245"/>
      <point x="300" y="250" type="curve" smooth="yes"/>
      <point x="300" y="255"/>
      <point x="295" y="260"/>
      <point x="290" y="260" type="curve" smooth="yes"/>
      <point x="185" y="260" type="line"/>
      <point x="185" y="480" type="line"/>
      <point x="290" y="480" type="line" smooth="yes"/>
      <point x="295" y="480"/>
      <point x="300" y="485"/>
      <point x="300" y="490" type="curve" smooth="yes"/>
      <point x="300" y="495"/>
      <point x="295" y="500"/>
      <point x="290" y="500" type="curve" smooth="yes"/>
      <point x="60" y="500" type="line" smooth="yes"/>
      <point x="55" y="500"/>
      <point x="50" y="495"/>
      <point x="50" y="490" type="curve" smooth="yes"/>
      <point x="50" y="10" type="line" smooth="yes"/>
      <point x="50" y="5"/>
      <point x="55" y="0"/>
      <point x="60" y="0" type="curve" smooth="yes"/>
      <point x="65" y="0"/>
      <point x="70" y="5"/>
      <point x="70" y="10" type="curve" smooth="yes"/>
      <point x="70" y="240" type="line"/>
      <point x="165" y="240" type="line"/>
      <point x="165" y="10" type="line" smooth="yes"/>
      <point x="165" y="5"/>
      <point x="170" y="0"/>
    </contour>
    <contour>
      <point x="165" y="480" type="line"/>
      <point x="165" y="260" type="line"/>
      <point x="70" y="260" type="line"/>
      <point x="70" y="480" type="line"/>
    </contour>
  </outline>
</glyph>
